<svg t="1682230118752" class="icon" viewBox="0 0 1024 1024" version="1.1" xmlns="http://www.w3.org/2000/svg" p-id="2576" width="200" height="200"><path d="M1006.362374 937.500875l-298.181293-298.181293 134.283699-41.867921a102.116881 102.116881 0 0 0 28.592726-181.257463l-160.834087-113.860323L714.818679 104.737711A102.116881 102.116881 0 0 0 549.389331 22.023037l-158.281165 117.944998L204.234274 76.655568A102.116881 102.116881 0 0 0 75.056419 206.854592l63.312467 186.363307L20.423888 550.98848a102.116881 102.116881 0 0 0 81.693505 163.38701h197.08558L414.595049 870.614318a102.116881 102.116881 0 0 0 83.735842 43.399674h15.828117a102.116881 102.116881 0 0 0 81.693504-70.460648l40.846753-131.730776 297.160123 297.160123a51.05844 51.05844 0 1 0 72.502986-72.502985z m-510.584405-123.561426l-145.005971-204.233762-248.654605 2.552922L252.229208 411.088354 171.556872 173.666605 408.468036 254.338941 612.701798 104.737711l-5.616429 250.186358 204.233762 145.005971-238.953501 74.545323z"  p-id="2577"></path></svg>